<svg xmlns="http://www.w3.org/2000/svg" xmlns:xlink="http://www.w3.org/1999/xlink" width="1920" zoomAndPan="magnify" viewBox="0 0 1440 809.999993" height="1080" preserveAspectRatio="xMidYMid meet" version="1.0"><defs><g/><clipPath id="7ccf59d89e"><path d="M 454 135.316406 L 881 135.316406 L 881 464 L 454 464 Z M 454 135.316406 " clip-rule="nonzero"/></clipPath></defs><path fill="#ffffff" d="M 420.019531 435.757812 C 361.960938 402.222656 244.15625 334.175781 243.3125 333.6875 C 293.910156 304.460938 411.714844 236.417969 420.019531 231.621094 C 436.699219 221.988281 421.644531 196.101562 404.914062 205.765625 C 346.855469 239.300781 288.796875 272.835938 230.738281 306.371094 C 222.433594 311.167969 214.128906 315.964844 205.824219 320.761719 C 196.117188 326.367188 196.117188 341.007812 205.824219 346.617188 C 263.882812 380.152344 396.609375 456.816406 404.914062 461.613281 C 421.625 471.265625 436.714844 445.398438 420.019531 435.757812 " fill-opacity="1" fill-rule="nonzero"/><path fill="#ffffff" d="M 1129.175781 320.761719 C 1071.113281 287.226562 938.386719 210.5625 930.085938 205.765625 C 913.371094 196.113281 898.285156 221.980469 914.976562 231.621094 C 973.035156 265.15625 1090.839844 333.203125 1091.6875 333.691406 C 1041.089844 362.914062 923.285156 430.960938 914.976562 435.757812 C 898.300781 445.390625 913.355469 471.273438 930.085938 461.613281 C 988.140625 428.078125 1120.867188 351.414062 1129.175781 346.617188 C 1138.882812 341.007812 1138.882812 326.367188 1129.175781 320.761719 " fill-opacity="1" fill-rule="nonzero"/><g clip-path="url(#7ccf59d89e)"><path fill="#ff385c" d="M 702.996094 296.3125 L 670.789062 296.3125 L 670.789062 264.058594 L 702.996094 264.058594 Z M 702.996094 335.160156 L 670.789062 335.160156 L 670.789062 302.902344 L 702.996094 302.902344 Z M 631.964844 335.160156 L 631.964844 302.902344 L 664.207031 302.902344 L 664.207031 335.160156 Z M 631.964844 264.058594 L 664.207031 264.058594 L 664.207031 296.3125 L 631.964844 296.3125 Z M 877.710938 302.410156 C 859.96875 288.097656 842.230469 273.792969 824.480469 259.480469 L 824.480469 215.183594 C 824.480469 212.230469 822.226562 209.820312 819.421875 209.820312 L 795.292969 209.820312 C 792.484375 209.820312 790.226562 212.230469 790.226562 215.183594 L 790.226562 231.851562 C 775.292969 219.804688 760.347656 207.753906 745.355469 195.707031 C 721.507812 176.484375 697.632812 157.207031 673.746094 137.984375 C 671.921875 136.113281 669.710938 135.378906 667.496094 135.472656 C 665.292969 135.378906 663.070312 136.113281 661.253906 137.984375 C 617.117188 173.535156 572.984375 209.082031 528.90625 244.6875 C 505.011719 263.910156 481.121094 283.136719 457.285156 302.410156 C 450.996094 307.425781 456.40625 317.507812 463.535156 317.507812 L 510.46875 317.507812 L 510.46875 454.886719 C 510.46875 459.710938 514.546875 463.738281 519.367188 463.738281 L 815.640625 463.738281 C 820.449219 463.738281 824.480469 459.710938 824.480469 454.886719 L 824.480469 317.507812 L 871.464844 317.507812 C 878.601562 317.507812 884 307.425781 877.710938 302.410156 " fill-opacity="1" fill-rule="nonzero"/></g><g fill="#ff385c" fill-opacity="1"><g transform="translate(195.579503, 667.412794)"><g><path d="M 28.265625 -37.71875 L 28.265625 0 L 6.84375 0 L 6.84375 -94.03125 L 28.265625 -94.03125 L 28.265625 -56.53125 L 58.578125 -56.53125 L 58.578125 -94.03125 L 80 -94.03125 L 80 0 L 58.578125 0 L 58.578125 -37.71875 Z M 28.265625 -37.71875 "/></g></g></g><g fill="#ff385c" fill-opacity="1"><g transform="translate(290.968859, 667.412794)"><g><path d="M 54.59375 -94.03125 L 92.546875 0 L 69.515625 0 L 62.5625 -18.8125 L 26.78125 -18.8125 L 19.828125 0 L -3.1875 0 L 34.765625 -94.03125 Z M 55.28125 -37.609375 L 44.796875 -64.96875 L 44.5625 -64.96875 L 34.078125 -37.609375 Z M 55.28125 -37.609375 "/></g></g></g><g fill="#ff385c" fill-opacity="1"><g transform="translate(388.865437, 667.412794)"><g><path d="M 36.234375 0 L -3.1875 -94.03125 L 20.96875 -94.03125 L 44.671875 -32.25 L 68.375 -94.03125 L 92.546875 -94.03125 L 53.109375 0 Z M 36.234375 0 "/></g></g></g><g fill="#ff385c" fill-opacity="1"><g transform="translate(486.762016, 667.412794)"><g><path d="M 60.625 -94.03125 L 60.625 -75.21875 L 28.265625 -75.21875 L 28.265625 -56.53125 L 59.265625 -56.53125 L 59.265625 -37.71875 L 28.265625 -37.71875 L 28.265625 -18.8125 L 60.625 -18.8125 L 60.625 0 L 6.84375 0 L 6.84375 -94.03125 Z M 60.625 -94.03125 "/></g></g></g><g fill="#ff385c" fill-opacity="1"><g transform="translate(561.409763, 667.412794)"><g><path d="M 28.265625 -58.359375 L 28.265625 0 L 6.84375 0 L 6.84375 -94.03125 L 28.265625 -94.03125 L 65.640625 -35.671875 L 65.875 -35.671875 L 65.875 -94.03125 L 87.296875 -94.03125 L 87.296875 0 L 65.875 0 L 28.5 -58.359375 Z M 28.265625 -58.359375 "/></g></g></g><g fill="#ffffff" fill-opacity="1"><g transform="translate(664.083382, 667.412794)"><g><path d="M 60.625 -94.03125 L 60.625 -75.21875 L 28.265625 -75.21875 L 28.265625 -56.53125 L 59.265625 -56.53125 L 59.265625 -37.71875 L 28.265625 -37.71875 L 28.265625 -18.8125 L 60.625 -18.8125 L 60.625 0 L 6.84375 0 L 6.84375 -94.03125 Z M 60.625 -94.03125 "/></g></g></g><g fill="#ffffff" fill-opacity="1"><g transform="translate(738.731124, 667.412794)"><g><path d="M 84.5625 0 L 80.125 -55.734375 L 79.546875 -55.734375 L 60.296875 -0.5625 L 47.53125 -0.5625 L 28.265625 -55.734375 L 27.6875 -55.734375 L 23.25 0 L 1.828125 0 L 10.25 -94.03125 L 33.046875 -94.03125 L 53.90625 -39.78125 L 74.765625 -94.03125 L 97.5625 -94.03125 L 105.984375 0 Z M 84.5625 0 "/></g></g></g><g fill="#ffffff" fill-opacity="1"><g transform="translate(855.089997, 667.412794)"><g><path d="M 6.84375 -94.03125 L 41.140625 -94.03125 C 50.710938 -94.03125 58.460938 -91.554688 64.390625 -86.609375 C 70.316406 -81.671875 73.28125 -74.488281 73.28125 -65.0625 C 73.28125 -55.644531 70.28125 -48.257812 64.28125 -42.90625 C 58.28125 -37.550781 50.566406 -34.875 41.140625 -34.875 L 28.265625 -34.875 L 28.265625 0 L 6.84375 0 Z M 28.265625 -51.96875 L 34.296875 -51.96875 C 39.085938 -51.96875 43.019531 -52.9375 46.09375 -54.875 C 49.175781 -56.8125 50.71875 -59.984375 50.71875 -64.390625 C 50.71875 -68.867188 49.175781 -72.078125 46.09375 -74.015625 C 43.019531 -75.953125 39.085938 -76.921875 34.296875 -76.921875 L 28.265625 -76.921875 Z M 28.265625 -51.96875 "/></g></g></g><g fill="#ffffff" fill-opacity="1"><g transform="translate(939.538715, 667.412794)"><g><path d="M 28.265625 -94.03125 L 28.265625 0 L 6.84375 0 L 6.84375 -94.03125 Z M 28.265625 -94.03125 "/></g></g></g><g fill="#ffffff" fill-opacity="1"><g transform="translate(983.18799, 667.412794)"><g><path d="M 6.84375 -94.03125 L 40.453125 -94.03125 C 49.492188 -94.03125 56.863281 -91.613281 62.5625 -86.78125 C 68.257812 -81.957031 71.109375 -75.066406 71.109375 -66.109375 C 71.109375 -59.191406 69.378906 -53.394531 65.921875 -48.71875 C 62.472656 -44.050781 57.785156 -40.765625 51.859375 -38.859375 L 84.21875 0 L 56.984375 0 L 28.265625 -37.15625 L 28.265625 0 L 6.84375 0 Z M 28.265625 -52.3125 L 30.765625 -52.3125 C 32.742188 -52.3125 34.414062 -52.347656 35.78125 -52.421875 C 37.15625 -52.503906 38.710938 -52.769531 40.453125 -53.21875 C 42.203125 -53.675781 43.609375 -54.320312 44.671875 -55.15625 C 45.734375 -56 46.644531 -57.21875 47.40625 -58.8125 C 48.164062 -60.40625 48.546875 -62.34375 48.546875 -64.625 C 48.546875 -66.90625 48.164062 -68.84375 47.40625 -70.4375 C 46.644531 -72.03125 45.734375 -73.242188 44.671875 -74.078125 C 43.609375 -74.910156 42.203125 -75.554688 40.453125 -76.015625 C 38.710938 -76.472656 37.15625 -76.738281 35.78125 -76.8125 C 34.414062 -76.882812 32.742188 -76.921875 30.765625 -76.921875 L 28.265625 -76.921875 Z M 28.265625 -52.3125 "/></g></g></g><g fill="#ffffff" fill-opacity="1"><g transform="translate(1073.334974, 667.412794)"><g><path d="M 60.625 -94.03125 L 60.625 -75.21875 L 28.265625 -75.21875 L 28.265625 -56.53125 L 59.265625 -56.53125 L 59.265625 -37.71875 L 28.265625 -37.71875 L 28.265625 -18.8125 L 60.625 -18.8125 L 60.625 0 L 6.84375 0 L 6.84375 -94.03125 Z M 60.625 -94.03125 "/></g></g></g></svg>